#Comment line ignore any data following # character 
#Hierarchical Translation and Rotation (.htr) file 
[Header]	
#Header keywords are followed by a single value 
FileType HTR		#Single word string
DataType HTRS		#Translation followed by rotation and scale data
FileVersion 1		#integer
NumSegments 64		#integer
NumFrames 3		#integer
DataFrameRate 30		#integer, data frame rate in this file
EulerRotationOrder ZYX
CalibrationUnits mm
RotationUnits Degrees
GlobalAxisofGravity Y
BoneLengthAxis Y
ScaleFactor 1.00
[SegmentNames&Hierarchy]
#CHILD	PARENT
Pinger_Root GLOBAL
Pelvis Pinger_Root
L_Hip Pelvis
R_Hip Pelvis
Rear_Leg01 Pelvis
Spine1 Pelvis
L_Leg01 L_Hip
L_Leg02 L_Leg01
L_Leg03 L_Leg02
L_Foot L_Leg03
L_Toe1_01 L_Foot
L_Toe2_01 L_Foot
L_Toe3_01 L_Foot
planeAlignerLeft L_Foot
L_Toe1_02 L_Toe1_01
L_Toe1_03 L_Toe1_02
L_Toe2_02 L_Toe2_01
L_Toe2_03 L_Toe2_02
L_Toe3_02 L_Toe3_01
L_Toe3_03 L_Toe3_02
planeLockWeightLeft planeAlignerLeft
R_Leg01 R_Hip
R_Leg02 R_Leg01
R_Leg03 R_Leg02
R_Foot R_Leg03
planeAlignerRight R_Foot
R_Toe1_01 R_Foot
R_Toe2_01 R_Foot
R_Toe3_01 R_Foot
planeLockWeightRight planeAlignerRight
R_Toe1_02 R_Toe1_01
R_Toe1_03 R_Toe1_02
R_Toe2_02 R_Toe2_01
R_Toe2_03 R_Toe2_02
R_Toe3_02 R_Toe3_01
R_Toe3_03 R_Toe3_02
Rear_Leg02 Rear_Leg01
Rear_Leg03 Rear_Leg02
Rear_Leg04 Rear_Leg03
Rear_Foot Rear_Leg04
planeAlignerCenter Rear_Foot
Rear_Toe1_01 Rear_Foot
Rear_Toe2_01 Rear_Foot
Rear_Toe3_01 Rear_Foot
planeLockWeightCenter planeAlignerCenter
Rear_Toe1_02 Rear_Toe1_01
Rear_Toe1_03 Rear_Toe1_02
Rear_Toe2_02 Rear_Toe2_01
Rear_Toe2_03 Rear_Toe2_02
Rear_Toe3_02 Rear_Toe3_01
Rear_Toe3_03 Rear_Toe3_02
Back_Bone Spine1
Head Spine1
Motor_Bone Back_Bone
Ping_Mechanism Back_Bone
BN_LookIK Head
bottomMouth Head
L_Mouth01 Head
L_mouthFront Head
mouthGun Head
R_Mouth01 Head
R_mouthFront Head
TopMouth Head
weapon_bone Head
[BasePosition]
#SegmentName Tx, Ty, Tz, Rx, Ry, Rz, BoneLength
Pinger_Root 0.000000 0.000000 0.000000 -90.000000 0.000000 0.000000 10.000000 
Pelvis 0.000000 0.000000 0.000000 0.000000 0.000000 0.000000 10.000000 
L_Hip 0.000000 0.000000 0.000000 0.000000 0.000000 0.000000 10.000000 
R_Hip 0.000000 0.000000 0.000000 0.000000 0.000000 0.000000 10.000000 
Rear_Leg01 0.000000 0.000000 0.000000 0.000000 0.000000 0.000000 10.000000 
Spine1 0.000000 0.000000 0.000000 0.000000 0.000000 0.000000 10.000000 
L_Leg01 0.000000 0.000000 0.000000 0.000000 0.000000 0.000000 10.000000 
L_Leg02 0.000000 0.000000 0.000000 0.000000 0.000000 0.000000 10.000000 
L_Leg03 0.000000 0.000000 0.000000 0.000000 0.000000 0.000000 10.000000 
L_Foot 0.000000 0.000000 0.000000 0.000000 0.000000 0.000000 10.000000 
L_Toe1_01 0.000000 0.000000 0.000000 0.000000 0.000000 0.000000 10.000000 
L_Toe2_01 0.000000 0.000000 0.000000 0.000000 0.000000 0.000000 10.000000 
L_Toe3_01 0.000000 0.000000 0.000000 0.000000 0.000000 0.000000 10.000000 
planeAlignerLeft 0.000000 0.000000 0.000000 0.000000 0.000000 0.000000 10.000000 
L_Toe1_02 0.000000 0.000000 0.000000 0.000000 0.000000 0.000000 10.000000 
L_Toe1_03 0.000000 0.000000 0.000000 0.000000 0.000000 0.000000 10.000000 
L_Toe2_02 0.000000 0.000000 0.000000 0.000000 0.000000 0.000000 10.000000 
L_Toe2_03 0.000000 0.000000 0.000000 0.000000 0.000000 0.000000 10.000000 
L_Toe3_02 0.000000 0.000000 0.000000 0.000000 0.000000 0.000000 10.000000 
L_Toe3_03 0.000000 0.000000 0.000000 0.000000 0.000000 0.000000 10.000000 
planeLockWeightLeft 0.000000 0.000000 0.000000 0.000000 0.000000 0.000000 10.000000 
R_Leg01 0.000000 0.000000 0.000000 0.000000 0.000000 0.000000 10.000000 
R_Leg02 0.000000 0.000000 0.000000 0.000000 0.000000 0.000000 10.000000 
R_Leg03 0.000000 0.000000 0.000000 0.000000 0.000000 0.000000 10.000000 
R_Foot 0.000000 0.000000 0.000000 0.000000 0.000000 0.000000 10.000000 
planeAlignerRight 0.000000 0.000000 0.000000 0.000000 0.000000 0.000000 10.000000 
R_Toe1_01 0.000000 0.000000 0.000000 0.000000 0.000000 0.000000 10.000000 
R_Toe2_01 0.000000 0.000000 0.000000 0.000000 0.000000 0.000000 10.000000 
R_Toe3_01 0.000000 0.000000 0.000000 0.000000 0.000000 0.000000 10.000000 
planeLockWeightRight 0.000000 0.000000 0.000000 0.000000 0.000000 0.000000 10.000000 
R_Toe1_02 0.000000 0.000000 0.000000 0.000000 0.000000 0.000000 10.000000 
R_Toe1_03 0.000000 0.000000 0.000000 0.000000 0.000000 0.000000 10.000000 
R_Toe2_02 0.000000 0.000000 0.000000 0.000000 0.000000 0.000000 10.000000 
R_Toe2_03 0.000000 0.000000 0.000000 0.000000 0.000000 0.000000 10.000000 
R_Toe3_02 0.000000 0.000000 0.000000 0.000000 0.000000 0.000000 10.000000 
R_Toe3_03 0.000000 0.000000 0.000000 0.000000 0.000000 0.000000 10.000000 
Rear_Leg02 0.000000 0.000000 0.000000 0.000000 0.000000 0.000000 10.000000 
Rear_Leg03 0.000000 0.000000 0.000000 0.000000 0.000000 0.000000 10.000000 
Rear_Leg04 0.000000 0.000000 0.000000 0.000000 0.000000 0.000000 10.000000 
Rear_Foot 0.000000 0.000000 0.000000 0.000000 0.000000 0.000000 10.000000 
planeAlignerCenter 0.000000 0.000000 0.000000 0.000000 0.000000 0.000000 10.000000 
Rear_Toe1_01 0.000000 0.000000 0.000000 0.000000 0.000000 0.000000 10.000000 
Rear_Toe2_01 0.000000 0.000000 0.000000 0.000000 0.000000 0.000000 10.000000 
Rear_Toe3_01 0.000000 0.000000 0.000000 0.000000 0.000000 0.000000 10.000000 
planeLockWeightCenter 0.000000 0.000000 0.000000 0.000000 0.000000 0.000000 10.000000 
Rear_Toe1_02 0.000000 0.000000 0.000000 0.000000 0.000000 0.000000 10.000000 
Rear_Toe1_03 0.000000 0.000000 0.000000 0.000000 0.000000 0.000000 10.000000 
Rear_Toe2_02 0.000000 0.000000 0.000000 0.000000 0.000000 0.000000 10.000000 
Rear_Toe2_03 0.000000 0.000000 0.000000 0.000000 0.000000 0.000000 10.000000 
Rear_Toe3_02 0.000000 0.000000 0.000000 0.000000 0.000000 0.000000 10.000000 
Rear_Toe3_03 0.000000 0.000000 0.000000 0.000000 0.000000 0.000000 10.000000 
Back_Bone 0.000000 0.000000 0.000000 0.000000 0.000000 0.000000 10.000000 
Head 0.000000 0.000000 0.000000 0.000000 0.000000 0.000000 10.000000 
Motor_Bone 0.000000 0.000000 0.000000 0.000000 0.000000 0.000000 10.000000 
Ping_Mechanism 0.000000 0.000000 0.000000 0.000000 0.000000 0.000000 10.000000 
BN_LookIK 0.000000 0.000000 0.000000 0.000000 0.000000 0.000000 10.000000 
bottomMouth 0.000000 0.000000 0.000000 0.000000 0.000000 0.000000 10.000000 
L_Mouth01 0.000000 0.000000 0.000000 0.000000 0.000000 0.000000 10.000000 
L_mouthFront 0.000000 0.000000 0.000000 0.000000 0.000000 0.000000 10.000000 
mouthGun 0.000000 0.000000 0.000000 0.000000 0.000000 0.000000 10.000000 
R_Mouth01 0.000000 0.000000 0.000000 0.000000 0.000000 0.000000 10.000000 
R_mouthFront 0.000000 0.000000 0.000000 0.000000 0.000000 0.000000 10.000000 
TopMouth 0.000000 0.000000 0.000000 0.000000 0.000000 0.000000 10.000000 
weapon_bone 0.000000 0.000000 0.000000 0.000000 0.000000 0.000000 10.000000 
#Beginning of Data. Separated by tabs
#Fr	Tx	Ty	Tz	Rx	Ry	Rz	SF
[Pinger_Root]
44 0.000000 -90.133682 0.000000 -0.000075 -0.000000 -0.000020 90.133682
45 0.000000 -94.381432 0.000000 -0.000075 -0.000000 -0.000020 94.381432
46 0.000000 -98.629189 0.000000 -0.000075 -0.000000 -0.000020 98.629196
[Pelvis]
44 979.837891 3439.049561 6659.755859 -123.578926 -75.979546 124.545578 7559.066406
45 1012.043823 3599.035889 6639.473633 -125.732567 -74.944031 124.290977 7619.704590
46 1041.593628 3756.892334 6639.312500 -130.568268 -74.078880 126.815140 7699.326660
[L_Hip]
44 5.766392 125.831482 872.656799 -178.253311 -81.787758 87.381340 881.701050
45 5.766392 125.831482 872.656799 -178.253342 -81.787735 87.381340 881.701050
46 5.766392 125.831482 872.656799 -178.253342 -81.787758 87.381340 881.701050
[R_Hip]
44 5.765438 125.836372 -872.654907 -1.746690 81.787712 87.381248 881.699829
45 5.765438 125.836372 -872.654907 -1.746690 81.787712 87.381248 881.699829
46 5.765438 125.836372 -872.654907 -1.746678 81.787712 87.381248 881.699829
[Rear_Leg01]
44 -192.298416 -925.602966 -0.001907 173.057510 -16.333170 -159.250549 945.367432
45 -192.298416 -925.602966 -0.001907 169.940689 -15.533428 -157.095337 945.367432
46 -192.298416 -925.602966 -0.001907 171.698471 -15.622991 -154.432648 945.367432
[Spine1]
44 290.604584 5.007505 0.000477 -5.606133 9.309710 11.424673 290.647736
45 290.604584 5.007505 0.000477 -2.979208 9.305587 10.307047 290.647736
46 290.604584 5.007505 0.000477 -0.181429 9.889513 10.011495 290.647736
[L_Leg01]
44 761.932007 -0.002384 -0.069261 43.836426 -56.673084 -35.913464 761.932068
45 761.932007 -0.002384 -0.069261 34.359386 -57.517414 -23.526306 761.932068
46 761.932007 -0.002384 -0.069261 34.057835 -54.514442 -20.581972 761.932068
[L_Leg02]
44 1441.140503 -0.000954 -0.000715 -1.425349 0.598083 -102.784622 1441.140503
45 1441.140503 -0.000954 -0.000715 -1.164601 0.521477 -113.318748 1441.140503
46 1441.140503 -0.000954 -0.000715 -0.851306 0.368018 -117.096802 1441.140503
[L_Leg03]
44 1686.963989 -0.000715 -0.000954 0.046980 -0.013736 97.833221 1686.963989
45 1686.963989 -0.000715 -0.000954 0.043693 -0.010171 98.258904 1686.963989
46 1686.963989 -0.000715 -0.000954 0.036553 -0.010274 100.155174 1686.963989
[L_Foot]
44 3041.570068 -30.715107 11.297464 -11.662851 5.600083 40.952087 3041.746094
45 3041.570068 -30.715107 11.297464 -13.172636 5.703417 45.589165 3041.746094
46 3041.570068 -30.715107 11.297464 -14.756783 6.032720 47.595585 3041.746094
[L_Toe1_01]
44 -188.216690 -224.732346 -21.137953 89.226906 -2.122469 -157.877808 293.899567
45 -188.216690 -224.732346 -21.137953 89.226913 -2.122470 -157.877899 293.899567
46 -188.216690 -224.732346 -21.137953 89.194069 -1.856428 -158.919739 293.899567
[L_Toe2_01]
44 200.746536 -219.926590 148.838394 -76.712166 -8.894033 -53.170143 332.896027
45 200.746536 -219.926590 148.838394 -76.712059 -8.897618 -53.174515 332.896027
46 200.746536 -219.926590 148.838394 -76.731415 -9.397518 -52.413525 332.896027
[L_Toe3_01]
44 188.832520 -219.859131 -191.078659 -107.223381 10.826004 -55.312725 347.140900
45 188.832520 -219.859131 -191.078659 -107.223343 10.826044 -55.312607 347.140900
46 188.832520 -219.859131 -191.078659 -107.336510 11.965751 -54.410637 347.140900
[planeAlignerLeft]
44 0.812531 -811.448792 -0.314951 0.000000 -90.000000 -90.001900 811.449280
45 0.812531 -811.448792 -0.314951 0.000000 -90.000000 -90.001900 811.449280
46 0.812531 -811.448792 -0.314951 0.000000 -90.000000 -90.001900 811.449280
[L_Toe1_02]
44 413.761139 0.000477 0.000000 0.001424 -20.961039 0.001424 413.761139
45 413.761139 0.000477 0.000000 0.001424 -20.961100 0.001424 413.761139
46 413.761139 0.000477 0.000000 0.001418 -21.675716 0.001418 413.761139
[L_Toe1_03]
44 464.317322 0.000358 -0.000089 0.043953 86.939957 0.043953 464.317322
45 464.317322 0.000358 -0.000089 0.043853 86.932930 0.043853 464.317322
46 464.317322 0.000358 -0.000089 0.023239 84.210335 0.023239 464.317322
[L_Toe2_02]
44 342.235809 -0.000477 0.000238 -0.008632 -64.891273 0.007454 342.235809
45 342.235809 -0.000477 0.000238 -0.008632 -64.891136 0.007454 342.235809
46 342.235809 -0.000477 0.000238 0.001192 -69.613365 0.001193 342.235809
[L_Toe2_03]
44 420.210846 -0.000715 0.000000 -0.001414 69.250771 -0.004969 420.210846
45 420.210846 -0.000715 0.000000 -0.001414 69.250450 -0.004969 420.210846
46 420.210846 -0.000715 0.000000 0.011942 78.720703 0.011942 420.210846
[L_Toe3_02]
44 329.270111 0.000954 0.000000 -0.010873 -70.434761 0.009706 329.270111
45 329.270111 0.000954 0.000000 -0.010876 -70.440697 0.009710 329.270111
46 329.270111 0.000954 0.000000 0.001185 -74.164803 0.001185 329.270111
[L_Toe3_03]
44 439.137451 -0.001907 0.000954 -0.002458 74.355438 -0.005988 439.137451
45 439.137451 -0.001907 0.000954 -0.002458 74.355110 -0.005988 439.137451
46 439.137451 -0.001907 0.000954 0.017870 82.468887 0.017870 439.137451
[planeLockWeightLeft]
44 -0.000954 0.000238 -0.000305 -0.011826 -0.004376 0.005620 0.001029
45 -0.000954 0.000238 -0.000305 -0.011826 -0.004376 0.005620 0.001029
46 -0.000954 0.000238 -0.000305 -0.011826 -0.004376 0.005620 0.001029
[R_Leg01]
44 761.455627 -0.001907 -0.000358 133.538315 -34.855358 68.243874 761.455688
45 761.455627 -0.001907 -0.000358 131.170197 -36.372997 70.139397 761.455688
46 761.455627 -0.001907 -0.000358 126.301643 -34.449455 75.940277 761.455688
[R_Leg02]
44 1441.140625 0.000000 -0.000238 0.108383 -0.062961 -116.690109 1441.140625
45 1441.140625 0.000000 -0.000238 0.111388 -0.057970 -117.496033 1441.140625
46 1441.140625 0.000000 -0.000238 0.154635 -0.055677 -113.726334 1441.140625
[R_Leg03]
44 1686.963989 0.000954 0.001431 -0.031711 0.010379 102.031944 1686.963989
45 1686.963989 0.000954 0.001431 -0.031784 0.010154 101.221558 1686.963989
46 1686.963989 0.000954 0.001431 -0.031786 0.010147 101.195961 1686.963989
[R_Foot]
44 3041.560059 -30.531288 -11.204481 7.883958 -5.562762 75.924583 3041.734131
45 3041.560059 -30.531288 -11.204481 7.953843 -5.505839 77.762573 3041.734131
46 3041.560059 -30.531288 -11.204481 8.016827 -5.889882 78.014023 3041.734131
[planeAlignerRight]
44 -0.635147 -812.270569 -0.364304 0.000000 -89.960434 -90.005180 812.270874
45 -0.635147 -812.270569 -0.364304 0.000000 -89.960434 -90.005180 812.270874
46 -0.635147 -812.270569 -0.364304 0.000000 -89.960434 -90.005180 812.270874
[R_Toe1_01]
44 -188.383347 -224.864899 21.052242 91.049210 1.802633 -149.628769 294.101532
45 -188.383347 -224.864899 21.052242 91.051651 1.810645 -149.175339 294.101532
46 -188.383347 -224.864899 21.052242 91.038963 1.819639 -149.570709 294.101532
[R_Toe2_01]
44 200.637817 -220.002121 -148.787384 -104.682281 9.325224 -58.274075 332.857574
45 200.637817 -220.002121 -148.787384 -104.744171 9.290854 -58.567699 332.857574
46 200.637817 -220.002121 -148.787384 -104.696915 9.355937 -58.297768 332.857574
[R_Toe3_01]
44 188.606735 -220.092957 191.126343 -70.951546 -11.387745 -60.231369 347.192566
45 188.606735 -220.092957 191.126343 -70.899284 -11.292227 -60.522362 347.192566
46 188.606735 -220.092957 191.126343 -70.956413 -11.385158 -60.242104 347.192566
[planeLockWeightRight]
44 -0.000477 0.000000 0.000000 -0.011823 -0.004379 -0.000027 0.000477
45 -0.000477 0.000000 0.000000 -0.011823 -0.004379 -0.000027 0.000477
46 -0.000477 0.000000 0.000000 -0.011823 -0.004379 -0.000027 0.000477
[R_Toe1_02]
44 413.762085 0.000477 -0.000119 0.001389 -25.333221 0.001389 413.762085
45 413.762085 0.000477 -0.000119 0.001389 -25.348431 0.001389 413.762085
46 413.762085 0.000477 -0.000119 0.001389 -25.363630 0.001389 413.762085
[R_Toe1_03]
44 464.317810 0.000000 0.001088 0.005323 64.526245 0.005323 464.317810
45 464.317810 0.000000 0.001088 0.005169 63.755848 0.005169 464.317810
46 464.317810 0.000000 0.001088 0.005279 64.309937 0.005279 464.317810
[R_Toe2_02]
44 342.234741 -0.000954 0.000238 0.001191 -70.313599 0.001191 342.234741
45 342.234741 -0.000954 0.000238 0.001191 -70.126205 0.001191 342.234741
46 342.234741 -0.000954 0.000238 0.001191 -70.368050 0.001191 342.234741
[R_Toe2_03]
44 420.210846 0.000715 -0.000268 0.013868 80.290436 0.013868 420.210846
45 420.210846 0.000715 -0.000268 0.013252 79.838326 0.013252 420.210846
46 420.210846 0.000715 -0.000268 0.014064 80.426376 0.014064 420.210846
[R_Toe3_02]
44 329.270355 -0.000477 -0.000954 0.001184 -74.810928 0.001184 329.270355
45 329.270355 -0.000477 -0.000954 0.001184 -74.661606 0.001184 329.270355
46 329.270355 -0.000477 -0.000954 0.001184 -74.867004 0.001184 329.270355
[R_Toe3_03]
44 439.137939 0.000238 0.001431 -0.012764 84.017059 -0.009262 439.137939
45 439.137939 0.000238 0.001431 -0.012109 83.638290 -0.008607 439.137939
46 439.137939 0.000238 0.001431 -0.013066 84.176910 -0.009564 439.137939
[Rear_Leg02]
44 1162.777710 -0.029802 0.005960 -1.902777 -2.982411 -57.667732 1162.777710
45 1162.777710 -0.029802 0.005960 -3.540127 -4.481513 -51.081623 1162.777710
46 1162.777710 -0.029802 0.005960 -4.965356 -11.066992 -62.635170 1162.777710
[Rear_Leg03]
44 607.192505 -0.013351 -0.073195 0.004039 0.005483 44.548378 607.192505
45 607.192505 -0.013351 -0.073195 0.003899 0.005584 41.634460 607.192505
46 607.192505 -0.013351 -0.073195 0.008756 0.003251 49.260357 607.192505
[Rear_Leg04]
44 995.874512 -0.020504 -0.011921 -0.031325 -0.011493 25.488771 995.874573
45 995.874512 -0.020504 -0.011921 -0.030904 -0.012580 21.487848 995.874573
46 995.874512 -0.020504 -0.011921 -0.033341 -0.014330 32.410759 995.874573
[Rear_Foot]
44 3096.176270 -0.067472 -0.041425 -167.780579 76.647522 37.218002 3096.176270
45 3096.176270 -0.067472 -0.041425 -162.786942 74.912109 44.766586 3096.176270
46 3096.176270 -0.067472 -0.041425 -148.100800 70.406532 47.970463 3096.176270
[planeAlignerCenter]
44 0.350077 0.966311 -838.790894 0.000009 0.000003 -179.999985 838.791565
45 0.350077 0.966311 -838.790894 0.000009 0.000003 -179.999985 838.791565
46 0.350077 0.966311 -838.790894 0.000009 0.000003 -179.999985 838.791565
[Rear_Toe1_01]
44 0.653352 83.966492 -371.173737 0.058291 30.558584 90.031929 380.553192
45 0.653352 83.966492 -371.173737 0.054076 30.881365 90.029312 380.553192
46 0.653352 83.966492 -371.173737 -0.123380 36.947300 89.678467 380.553192
[Rear_Toe2_01]
44 178.200760 -294.826019 -362.060547 2.059260 54.227970 -68.361977 499.765686
45 178.200760 -294.826019 -362.060547 2.101601 54.540783 -68.316170 499.765686
46 178.200760 -294.826019 -362.060547 1.997392 53.885067 -68.434853 499.765686
[Rear_Toe3_01]
44 -153.359680 -308.780914 -362.060852 -2.430524 54.209934 -114.286247 499.952881
45 -153.359680 -308.780914 -362.060852 -2.503379 54.518936 -114.346466 499.952881
46 -153.359680 -308.780914 -362.060852 -2.375912 53.872288 -114.210785 499.952881
[planeLockWeightCenter]
44 -0.000062 0.000238 0.000000 -0.011814 -0.004373 -0.000015 0.000246
45 -0.000062 0.000238 0.000000 -0.011814 -0.004373 -0.000015 0.000246
46 -0.000062 0.000238 0.000000 -0.011814 -0.004373 -0.000015 0.000246
[Rear_Toe1_02]
44 379.707825 0.194073 0.000477 -0.000263 -31.964743 0.006946 379.707855
45 379.707825 0.194073 0.000477 -0.000252 -31.815582 0.006940 379.707855
46 379.707825 0.194073 0.000477 -0.000307 -32.567093 0.006971 379.707855
[Rear_Toe1_03]
44 500.129700 0.165701 0.000119 0.000056 53.414505 0.007422 500.129761
45 500.129700 0.165701 0.000119 -0.000027 52.640671 0.007355 500.129761
46 500.129700 0.165701 0.000119 -0.003867 57.363605 -0.000224 500.129761
[Rear_Toe2_02]
44 340.494507 0.000238 -0.000954 0.001175 -83.726768 0.001175 340.494507
45 340.494507 0.000238 -0.000954 0.001175 -83.580727 0.001175 340.494507
46 340.494507 0.000238 -0.000954 0.001175 -83.833084 0.001175 340.494507
[Rear_Toe2_03]
44 433.103577 0.000000 0.000238 179.976440 84.290276 179.976440 433.103546
45 433.103577 0.000000 0.000238 179.974884 84.644234 179.974884 433.103546
46 433.103577 0.000000 0.000238 179.977448 84.037079 179.977448 433.103546
[Rear_Toe3_02]
44 340.494141 -0.000358 -0.000477 0.001175 -83.594055 0.001175 340.494171
45 340.494141 -0.000358 -0.000477 0.001176 -83.434845 0.001176 340.494171
46 340.494141 -0.000358 -0.000477 0.001175 -83.700172 0.001175 340.494171
[Rear_Toe3_03]
44 433.103577 0.001431 -0.000238 -179.989502 84.624184 -179.985992 433.103546
45 433.103577 0.001431 -0.000238 -179.988647 84.972427 -179.985138 433.103546
46 433.103577 0.001431 -0.000238 -179.990051 84.370361 -179.986557 433.103546
[Back_Bone]
44 1312.175781 -701.934692 0.000954 0.372513 3.185952 -80.164841 1488.125488
45 1312.175781 -701.934692 0.000954 0.092866 3.184185 -80.995880 1488.125488
46 1312.175781 -701.934692 0.000954 -0.234394 3.189025 -82.812988 1488.125488
[Head]
44 1406.159424 809.709290 0.001431 2.237500 1.217244 4.939215 1622.625488
45 1406.159424 809.709290 0.001431 1.907644 1.421492 4.973649 1622.625488
46 1406.159424 809.709290 0.001431 1.577877 1.625934 5.006903 1622.625488
[Motor_Bone]
44 1158.364380 -417.834747 0.000477 -2.188870 -0.972377 -106.959076 1231.419434
45 1158.364380 -417.834747 0.000477 -2.096959 -0.841785 -106.828552 1231.419434
46 1158.364380 -417.834747 0.000477 -2.004733 -0.711401 -106.697815 1231.419434
[Ping_Mechanism]
44 1291.489746 -472.147156 -40.275204 0.000103 -0.000053 82.120995 1375.678345
45 1296.871216 -471.083984 -42.701473 0.000103 -0.000053 82.120995 1380.441406
46 1300.010132 -467.290039 -47.460003 0.000103 -0.000053 82.120995 1382.258545
[BN_LookIK]
44 193.241119 1380.371704 -0.002861 0.000000 89.965736 -31.038179 1393.832153
45 193.241119 1380.371704 -0.002861 0.000000 89.965736 -31.038179 1393.832153
46 193.241119 1380.371704 -0.002861 0.000000 89.965736 -31.038179 1393.832153
[bottomMouth]
44 -435.092926 615.759399 -0.000954 -0.000022 0.000016 73.527184 753.966492
45 -435.092926 615.759399 -0.000954 -0.000022 0.000016 73.527184 753.966492
46 -435.092926 615.759399 -0.000954 -0.000022 0.000016 73.527184 753.966492
[L_Mouth01]
44 554.440979 7.658243 838.222046 150.204178 23.759130 109.605339 1005.027161
45 554.440979 7.658243 838.222046 150.204178 23.759130 109.605339 1005.027161
46 554.440979 7.658243 838.222046 150.204178 23.759130 109.605339 1005.027161
[L_mouthFront]
44 551.629089 934.514771 339.150421 0.000081 2.804060 79.119301 1136.941284
45 551.629089 934.514771 339.150421 0.000081 2.804060 79.119301 1136.941284
46 551.629089 934.514771 339.150421 0.000081 2.804060 79.119301 1136.941284
[mouthGun]
44 55.332661 1627.420898 0.000000 0.000023 0.000009 -11.038128 1628.361328
45 55.332661 1627.420898 0.000000 0.000023 0.000009 -11.038128 1628.361328
46 55.332661 1627.420898 0.000000 0.000023 0.000009 -11.038128 1628.361328
[R_Mouth01]
44 554.442383 7.659197 -838.223938 29.795891 -23.759109 109.605331 1005.029541
45 554.442383 7.659197 -838.223938 29.795891 -23.759109 109.605331 1005.029541
46 554.442383 7.659197 -838.223938 29.795891 -23.759109 109.605331 1005.029541
[R_mouthFront]
44 551.629089 934.514282 -339.151367 0.000029 -2.803930 79.119133 1136.941162
45 551.629089 934.514282 -339.151367 0.000029 -2.803930 79.119133 1136.941162
46 551.629089 934.514282 -339.151367 0.000029 -2.803930 79.119133 1136.941162
[TopMouth]
44 461.269867 -56.106091 -0.008583 -0.000059 -0.000268 92.025169 464.669525
45 461.269867 -56.106091 -0.008583 -0.000059 -0.000268 92.025169 464.669525
46 461.269867 -56.106091 -0.008583 -0.000059 -0.000268 92.025169 464.669525
[weapon_bone]
44 -987.239868 1448.372803 0.001431 0.000000 89.965736 -31.038221 1752.833740
45 -987.239868 1448.372803 0.001431 0.000000 89.965736 -31.038221 1752.833740
46 -987.239868 1448.372803 0.001431 0.000000 89.965736 -31.038221 1752.833740
